HIERARCHY
ROOT Hips
{
	OFFSET 0.000000 0.000000 0.000000
	CHANNELS 6 Xposition Yposition Zposition Yrotation Xrotation Zrotation 
	JOINT LeftHip
	{
		OFFSET 0.094196 0.000343 -0.000038
		CHANNELS 3 Yrotation Xrotation Zrotation
		JOINT LeftKnee
		{
			OFFSET 0.000000 -0.468901 0.000041
			CHANNELS 3 Yrotation Xrotation Zrotation
			JOINT LeftAnkle
			{
				OFFSET 0.000000 -0.397674 0.000438
				CHANNELS 3 Yrotation Xrotation Zrotation
				JOINT LeftToe
				{
					OFFSET 0.000000 -0.090712 0.195501
					CHANNELS 3 Yrotation Xrotation Zrotation
					End Site
					{
						OFFSET 0.000000 0.000000 0.000000
					}
				}
			}
		}
	}
	JOINT RightHip
	{
		OFFSET -0.094196 0.000364 -0.000040
		CHANNELS 3 Yrotation Xrotation Zrotation
		JOINT RightKnee
		{
			OFFSET 0.000000 -0.468901 0.000041
			CHANNELS 3 Yrotation Xrotation Zrotation
			JOINT RightAnkle
			{
				OFFSET 0.000000 -0.397674 0.000438
				CHANNELS 3 Yrotation Xrotation Zrotation
				JOINT RightToe
				{
					OFFSET 0.000000 -0.090712 0.195501
					CHANNELS 3 Yrotation Xrotation Zrotation
					End Site
					{
						OFFSET 0.000000 0.000000 0.000000
					}
				}
			}
		}
	}
	JOINT Chest
	{
		OFFSET 0.000000 0.113860 -0.012651
		CHANNELS 3 Yrotation Xrotation Zrotation
		JOINT Chest3
		{
			OFFSET 0.000249 0.210437 -0.011343
			CHANNELS 3 Yrotation Xrotation Zrotation
			JOINT Chest4
			{
				OFFSET 0.000000 0.100637 -0.000145
				CHANNELS 3 Yrotation Xrotation Zrotation
				JOINT Neck
				{
					OFFSET 0.000000 0.138831 0.000000
					CHANNELS 3 Yrotation Xrotation Zrotation
					JOINT Head
					{
						OFFSET 0.000000 0.095420 0.000176
						CHANNELS 3 Yrotation Xrotation Zrotation
						End Site
						{
							OFFSET 0.000000 0.000000 0.000000
						}
					}
				}
				JOINT LeftCollar
				{
					OFFSET 0.029338 0.077908 0.000000
					CHANNELS 3 Yrotation Xrotation Zrotation
					JOINT LeftShoulder
					{
						OFFSET 0.140442 0.000000 0.000000
						CHANNELS 3 Yrotation Xrotation Zrotation
						JOINT LeftElbow
						{
							OFFSET 0.303173 0.000000 0.000000
							CHANNELS 3 Yrotation Xrotation Zrotation
							JOINT LeftWrist
							{
								OFFSET 0.261212 0.000000 0.000049
								CHANNELS 3 Yrotation Xrotation Zrotation
								End Site
								{
									OFFSET 0.000000 0.000000 0.000000
								}
							}
						}
					}
				}
				JOINT RightCollar
				{
					OFFSET -0.029338 0.077908 0.000000
					CHANNELS 3 Yrotation Xrotation Zrotation
					JOINT RightShoulder
					{
						OFFSET -0.140442 0.000000 0.000000
						CHANNELS 3 Yrotation Xrotation Zrotation
						JOINT RightElbow
						{
							OFFSET -0.303173 0.000000 0.000000
							CHANNELS 3 Yrotation Xrotation Zrotation
							JOINT RightWrist
							{
								OFFSET -0.261212 0.000000 0.000049
								CHANNELS 3 Yrotation Xrotation Zrotation
								End Site
								{
									OFFSET 0.000000 0.000000 0.000000
								}
							}
						}
					}
				}
			}
		}
	}
}
MOTION
Frames: 11
Frame Time: 0.016667
0.000000 0.000000 0.000000 195.492041 3.483286 0.129907 5.718564 356.959491 0.604359 0.823756 7.491707 359.654873 9.427974 352.379588 358.985167 0.043790 1.462283 359.109747 356.154297 353.770219 354.616201 0.718655 10.545738 358.662954 356.498228 353.932817 6.202369 0.536253 359.315589 358.387356 0.088470 1.746729 0.179254 359.904242 355.534886 0.259492 351.644405 6.172112 0.096801 340.433274 15.290853 2.571788 327.552504 353.850083 11.216211 356.112327 5.704050 347.341770 352.824754 344.636479 283.894034 342.480046 32.836564 359.504075 355.281632 7.284541 4.000450 6.919192 0.093115 12.947046 358.124830 344.602991 72.917194 356.353761 340.118502 354.925423 2.452592 8.712840 2.522774 
0.000000 0.000000 0.000000 195.217863 3.527532 0.042303 5.727674 356.919261 0.389713 0.890972 7.479754 359.621502 9.629428 352.319093 359.252850 0.026773 1.509055 359.049295 355.843907 353.308061 354.495388 0.615869 11.089860 358.767961 356.344578 354.206443 6.498093 0.404579 358.962837 358.250126 0.080676 1.797236 0.224669 359.893825 355.577111 0.300457 351.485806 6.193810 0.085832 340.520757 15.222140 2.579810 327.801315 353.603795 11.144559 356.154862 5.698255 347.351220 353.039672 344.580675 283.848791 343.023524 32.086263 359.813478 355.779454 6.586986 4.244531 6.849956 359.995511 12.817034 357.957473 344.667478 73.317716 357.317818 337.144248 355.295130 2.861864 8.093831 3.504716 
0.000000 0.000000 0.000000 194.985892 3.559298 359.885699 5.722916 356.893926 0.269060 0.953913 7.439005 359.607647 9.807906 352.292584 359.477626 359.987063 1.551099 358.948259 355.440027 352.863909 354.525004 0.504595 11.661294 358.893146 356.002667 354.516695 6.637627 0.124265 358.582979 358.158487 0.072413 1.851389 0.292071 359.877020 355.622492 0.360831 351.417251 6.222146 0.096062 340.566156 15.180508 2.587262 327.960775 353.347840 11.119259 356.174137 5.685258 347.357693 353.252987 344.495763 283.832769 343.800642 31.233035 0.194101 355.901836 6.461507 3.947983 6.892883 0.135482 12.848171 358.106328 344.473321 73.499516 357.863525 334.903439 355.505384 3.411016 7.745074 4.547947 
0.000000 0.000000 0.000000 194.790071 3.584106 359.683397 5.708985 356.864358 0.215419 1.013597 7.403529 359.606668 9.962850 352.279396 359.667850 359.931100 1.591131 358.835599 354.988169 352.614070 354.660279 0.405615 11.844714 359.016179 355.472613 355.081817 6.670198 359.895327 358.223207 358.103714 0.063952 1.905519 0.373635 359.856212 355.668120 0.433889 351.425312 6.252357 0.120945 340.580246 15.162284 2.595350 328.028217 353.135139 11.134635 356.188623 5.641184 347.360235 353.462530 344.437840 283.826586 344.759823 30.264686 0.666107 355.952644 6.637090 3.368247 6.930982 0.288218 12.884307 358.367690 344.284252 73.609770 358.245175 333.564241 355.664130 3.814489 7.778061 5.289388 
0.000000 0.000000 0.000000 194.599970 3.615390 359.482190 5.699231 356.844151 0.177978 1.069033 7.337107 359.607212 10.113254 352.286380 359.836860 359.851664 1.634760 358.759809 354.557496 352.335297 354.817123 0.272912 12.102785 359.132514 354.946297 355.558877 6.673510 359.887619 358.005801 358.064225 0.057062 1.947600 0.447198 359.837344 355.703683 0.499969 351.479672 6.276249 0.145632 340.593672 15.167073 2.607721 328.008779 353.041041 11.181975 356.231426 5.538143 347.362342 353.764518 344.476540 283.820767 345.725664 29.232075 1.146486 356.192772 6.872795 2.729291 6.974103 0.430333 12.909664 358.622472 344.117998 73.695061 358.554155 332.845670 355.794546 3.959845 8.272170 5.277352 
0.000000 0.000000 0.000000 194.407664 3.662752 359.291441 5.700515 356.815705 0.146732 1.120027 7.263606 359.605092 10.261468 352.299597 359.982494 359.769543 1.688023 358.731066 354.115254 352.024207 354.989978 0.132380 12.419338 359.249849 354.386411 355.932863 6.672657 0.160949 357.907833 358.049691 0.052628 1.968863 0.507569 359.821668 355.721252 0.554310 351.588740 6.288410 0.168759 340.611482 15.202619 2.625509 327.904655 353.079713 11.244488 356.291318 5.425703 347.384544 354.148180 344.561935 283.806190 346.746020 28.117883 1.647070 356.601330 7.055539 2.196993 7.021242 0.535317 12.922815 358.843601 343.980091 73.757768 358.731518 332.658135 355.920794 3.884327 8.780195 4.916082 
0.000000 0.000000 0.000000 194.221354 3.716696 359.101696 5.707000 356.789087 0.131815 1.166547 7.175574 359.603544 10.403767 352.324661 0.106404 359.717693 1.746445 358.728933 353.660308 351.760261 355.176470 0.030946 12.656023 359.369560 353.778752 356.291167 6.638791 0.479548 357.823504 358.120883 0.050059 1.977542 0.560105 359.807703 355.727907 0.601593 351.759556 6.293971 0.194357 340.620419 15.259609 2.647871 327.741607 353.222479 11.316015 356.361769 5.307087 347.416769 354.594271 344.672531 283.786239 347.844307 26.912817 2.180543 357.074166 7.208051 1.842214 7.057195 0.566726 12.920870 359.047813 343.901698 73.793245 358.779858 333.074824 356.050030 3.661264 8.930155 4.430486 
0.000000 0.000000 0.000000 194.034727 3.762070 358.931446 5.718029 356.774157 0.112739 1.209411 7.088676 359.600377 10.543634 352.343729 0.221322 359.704347 1.798688 358.751540 353.329993 351.537988 355.323613 359.966185 12.837636 359.469902 353.298956 356.608885 6.593723 0.669365 357.752757 358.280029 0.049609 1.986726 0.597948 359.797110 355.735366 0.635697 351.967442 6.297672 0.218270 340.623290 15.313139 2.673430 327.565353 353.452635 11.401826 356.408990 5.162606 347.451795 355.155492 344.831164 283.825690 348.828105 25.517513 2.621456 357.626101 7.359541 1.643151 7.064173 0.524404 12.903326 359.246086 343.896556 73.805717 358.798042 333.970811 356.185544 3.390708 8.836603 3.951774 
0.000000 0.000000 0.000000 193.842335 3.791617 358.790563 5.734979 356.774329 0.080241 1.248865 7.016010 359.594448 10.683906 352.343698 0.330754 359.725496 1.837588 358.795031 353.185406 351.361807 355.405355 359.929638 12.972117 359.521413 353.055120 356.851499 6.509407 0.622546 357.702278 358.570971 0.051867 2.001375 0.615155 359.791247 355.748112 0.651256 352.215599 6.302666 0.238980 340.623962 15.356058 2.704919 327.386984 353.736118 11.506439 356.403463 4.971977 347.479587 355.866638 345.038141 283.963678 349.686784 23.863112 2.930543 358.176288 7.517205 1.558079 7.062492 0.489099 12.880033 359.457526 343.907204 73.810129 358.843789 335.198012 356.331382 3.189924 8.661606 3.528306 
0.000000 0.000000 0.000000 193.649780 3.812831 358.669223 5.757028 356.780224 0.043379 1.285113 6.958194 359.586964 10.821048 352.329975 0.430056 359.776675 1.863582 358.848701 353.152365 351.236452 355.444838 359.921356 13.029342 359.533263 352.983175 357.061835 6.423372 0.206157 357.670029 358.826042 0.056302 2.016126 0.617871 359.788752 355.761169 0.653654 352.509986 6.308099 0.260366 340.613392 15.393482 2.740365 327.213747 354.020110 11.613078 356.339156 5.070972 347.480803 356.462053 345.010809 284.186418 350.501382 21.906596 3.286575 358.677466 7.566533 1.501883 7.083151 0.534379 12.859491 359.723628 343.838395 73.811126 358.829742 336.681563 356.428964 3.240480 8.524442 3.223849 
0.000000 0.000000 0.000000 193.467681 3.832900 358.556362 5.780469 356.779707 0.009159 1.319008 6.918869 359.579241 10.948861 352.308561 0.519139 359.851242 1.874917 358.901636 353.160999 351.134811 355.441509 359.942778 13.043924 359.537555 353.047152 357.283092 6.437292 359.639671 357.594708 358.975951 0.061447 2.028477 0.617152 359.787149 355.772116 0.652854 352.831052 6.313886 0.286625 340.575632 15.421369 2.773593 327.069630 354.255029 11.701303 356.255811 5.163525 347.442617 357.050800 344.926249 284.389995 351.462528 19.917992 3.783775 359.114912 7.540929 1.631779 7.048508 0.570401 12.793566 359.997183 343.813317 73.805604 358.911910 338.718199 356.507686 3.391674 8.370356 2.949256 
